<svg width="35" height="35" viewBox="0 0 112 112" fill="none" xmlns="http://www.w3.org/2000/svg">
<path d="M55.9995 41.4205C47.9714 41.4205 41.4199 47.9721 41.4199 56.0002C41.4199 64.0283 47.9714 70.5799 55.9995 70.5799C64.0277 70.5799 70.5792 64.0283 70.5792 56.0002C70.5792 47.9721 64.0277 41.4205 55.9995 41.4205ZM99.7277 56.0002C99.7277 49.9627 99.7824 43.9799 99.4433 37.9534C99.1042 30.9534 97.5074 24.7409 92.3886 19.6221C87.2589 14.4924 81.0574 12.9065 74.0574 12.5674C68.0199 12.2284 62.037 12.283 56.0105 12.283C49.973 12.283 43.9902 12.2284 37.9636 12.5674C30.9636 12.9065 24.7511 14.5034 19.6324 19.6221C14.5027 24.7518 12.9167 30.9534 12.5777 37.9534C12.2386 43.9908 12.2933 49.9737 12.2933 56.0002C12.2933 62.0268 12.2386 68.0205 12.5777 74.0471C12.9167 81.0471 14.5136 87.2596 19.6324 92.3783C24.762 97.508 30.9636 99.094 37.9636 99.433C44.0011 99.7721 49.9839 99.7174 56.0105 99.7174C62.048 99.7174 68.0308 99.7721 74.0574 99.433C81.0574 99.094 87.2699 97.4971 92.3886 92.3783C97.5183 87.2487 99.1042 81.0471 99.4433 74.0471C99.7933 68.0205 99.7277 62.0377 99.7277 56.0002V56.0002ZM55.9995 78.433C43.5855 78.433 33.5667 68.4143 33.5667 56.0002C33.5667 43.5862 43.5855 33.5674 55.9995 33.5674C68.4136 33.5674 78.4324 43.5862 78.4324 56.0002C78.4324 68.4143 68.4136 78.433 55.9995 78.433ZM79.3511 37.8877C76.4527 37.8877 74.112 35.5471 74.112 32.6487C74.112 29.7502 76.4527 27.4096 79.3511 27.4096C82.2496 27.4096 84.5902 29.7502 84.5902 32.6487C84.591 33.3369 84.4561 34.0186 84.1931 34.6546C83.9302 35.2906 83.5443 35.8685 83.0576 36.3552C82.571 36.8418 81.9931 37.2277 81.357 37.4907C80.721 37.7537 80.0394 37.8886 79.3511 37.8877V37.8877Z" fill="url(#paint0_linear_282_56)"/>
<defs>
<linearGradient id="paint0_linear_282_56" x1="104.225" y1="99.7207" x2="1.785" y2="12.2798" gradientUnits="userSpaceOnUse">
<stop stop-color="#CA0018"/>
<stop offset="0.497917" stop-color="#FF5065"/>
<stop offset="1" stop-color="white"/>
</linearGradient>
</defs>
</svg>
